<svg id="Layer_1" data-name="Layer 1" xmlns="http://www.w3.org/2000/svg" viewBox="0 0 192.75 47.67"><defs><style>.cls-1{fill:#4d07e4;}.cls-2{fill:#fff;}</style></defs><title>Artboard 1</title><path class="cls-1" d="M83.31,5.44V9.63H65.91V23.41H80.66v4H65.91V45.28H60.77V5.44Z"/><path class="cls-1" d="M89.47,2.87a4.16,4.16,0,0,1,5.09,0,3,3,0,0,1,1,2.29,3,3,0,0,1-1,2.29,4.12,4.12,0,0,1-5.09,0,3,3,0,0,1-1-2.29A3,3,0,0,1,89.47,2.87Zm5.09,11.39v31H89.42v-31Z"/><path class="cls-1" d="M127.27,15.78a13.34,13.34,0,0,1,5.06,5.54,18.56,18.56,0,0,1,1.83,8.48,18.33,18.33,0,0,1-1.83,8.44,13.26,13.26,0,0,1-5.06,5.51,14.08,14.08,0,0,1-7.34,1.92,12.6,12.6,0,0,1-7.66-2.29,11.6,11.6,0,0,1-4.32-6v7.91h-5.14V3.47H108v18.7a11.63,11.63,0,0,1,4.32-6,12.67,12.67,0,0,1,7.66-2.29A14.08,14.08,0,0,1,127.27,15.78Zm-14.24,4a9.59,9.59,0,0,0-3.78,4,12.69,12.69,0,0,0-1.36,6,12.54,12.54,0,0,0,1.36,6,9.74,9.74,0,0,0,3.78,4,10.62,10.62,0,0,0,5.43,1.41,10,10,0,0,0,7.65-3c1.9-2,2.86-4.79,2.86-8.33s-1-6.32-2.86-8.34a10,10,0,0,0-7.65-3A10.8,10.8,0,0,0,113,19.82Z"/><path class="cls-1" d="M169.19,30.87h-24.8q.17,5.31,3,8a9.86,9.86,0,0,0,7,2.65,10.06,10.06,0,0,0,6.24-1.89,7.79,7.79,0,0,0,3.08-5.06h5.48a12.9,12.9,0,0,1-7.57,9.72,16.74,16.74,0,0,1-7,1.41,16,16,0,0,1-7.91-1.92,13.52,13.52,0,0,1-5.4-5.51,17.39,17.39,0,0,1-1.95-8.44,17.61,17.61,0,0,1,1.95-8.48,13.6,13.6,0,0,1,5.4-5.54,16,16,0,0,1,7.91-1.92,15.62,15.62,0,0,1,7.88,1.92,13.32,13.32,0,0,1,5.14,5.15A14.4,14.4,0,0,1,169.42,28,15.33,15.33,0,0,1,169.19,30.87Zm-6.1-8.25a8.28,8.28,0,0,0-3.56-3.45A10.84,10.84,0,0,0,154.62,18a10.17,10.17,0,0,0-7.12,2.63q-2.88,2.63-3.11,7.71h19.83A10.47,10.47,0,0,0,163.09,22.62Z"/><path class="cls-1" d="M185.75,15.53a13.22,13.22,0,0,1,7-1.78v5.59h-1.58a11,11,0,0,0-7.12,2.24c-1.84,1.48-2.77,3.94-2.77,7.37V45.28h-5.14v-31h5.14v6.27A11.43,11.43,0,0,1,185.75,15.53Z"/><rect class="cls-1" width="47.67" height="47.67" rx="6.35"/><path class="cls-2" d="M15,38.3h0V9.37H32.67a4.32,4.32,0,0,1-4.32,4.33H20.08v9.79h11.8a4.35,4.35,0,0,1-4.35,4.35H20.08v5.38A5.08,5.08,0,0,1,15,38.3Z"/></svg>